<svg width="30" height="30" viewBox="0 0 30 30" fill="none" xmlns="http://www.w3.org/2000/svg">
<g clip-path="url(#clip0_35_474)">
<path d="M10.7143 11.7856C13.673 11.7856 16.0715 9.38712 16.0715 6.42843C16.0715 3.46977 13.673 1.07129 10.7143 1.07129C7.75563 1.07129 5.35718 3.46977 5.35718 6.42843C5.35718 9.38712 7.75563 11.7856 10.7143 11.7856Z" stroke="#BFBFBF" stroke-linecap="round" stroke-linejoin="round"/>
<path d="M13.9286 26.7856H1.07141V25.6239C1.08847 23.9906 1.51922 22.3882 2.32342 20.9666C3.12763 19.5449 4.27905 18.3502 5.67015 17.4942C7.06121 16.6381 8.64663 16.1486 10.2782 16.0714C11.9097 15.9941 13.5342 16.3317 15 17.0525" stroke="#BFBFBF" stroke-linecap="round" stroke-linejoin="round"/>
<path d="M22.5 16.0713V28.9284" stroke="#BFBFBF" stroke-linecap="round" stroke-linejoin="round"/>
<path d="M16.0714 22.5H28.9286" stroke="#BFBFBF" stroke-linecap="round" stroke-linejoin="round"/>
</g>
<defs>
<clipPath id="clip0_35_474">
<rect width="30" height="30" fill="white"/>
</clipPath>
</defs>
</svg>
