<svg width="50" height="50" viewBox="0 0 50 50" fill="none" xmlns="http://www.w3.org/2000/svg">
<path d="M17.857 19.6428C22.7882 19.6428 26.7856 15.6454 26.7856 10.7142C26.7856 5.78311 22.7882 1.78564 17.857 1.78564C12.9259 1.78564 8.92847 5.78311 8.92847 10.7142C8.92847 15.6454 12.9259 19.6428 17.857 19.6428Z" stroke="#BFBFBF" stroke-width="3" stroke-linecap="round" stroke-linejoin="round"/>
<path d="M23.2142 44.6431H1.78564V42.707C1.81408 39.9849 2.53199 37.3142 3.87232 34.9448C5.21268 32.5753 7.13172 30.5842 9.45022 29.1574C11.7686 27.7307 14.411 26.9148 17.1302 26.7861C19.8495 26.6574 22.557 27.2199 24.9999 28.4213" stroke="#BFBFBF" stroke-width="3" stroke-linecap="round" stroke-linejoin="round"/>
<path d="M26.7856 37.5H48.2142" stroke="#BFBFBF" stroke-width="3" stroke-linecap="round" stroke-linejoin="round"/>
<path d="M26.7859 32.5H48.2145" stroke="#BFBFBF" stroke-width="3" stroke-linecap="round" stroke-linejoin="round"/>
<path d="M26.7859 42.5H48.2145" stroke="#BFBFBF" stroke-width="3" stroke-linecap="round" stroke-linejoin="round"/>
</svg>
