<svg width="54" height="54" viewBox="0 0 54 54" fill="none" xmlns="http://www.w3.org/2000/svg">
<path d="M36.6154 40.4615V48.1538C36.6154 49.1738 36.2102 50.1523 35.4889 50.8735C34.7676 51.5946 33.7893 52 32.7692 52H5.84615C4.82608 52 3.84781 51.5946 3.12651 50.8735C2.40522 50.1523 2 49.1738 2 48.1538V5.84615C2 4.82608 2.40522 3.84781 3.12651 3.12651C3.84781 2.40522 4.82608 2 5.84615 2H32.7692C33.7893 2 34.7676 2.40522 35.4889 3.12651C36.2102 3.84781 36.6154 4.82608 36.6154 5.84615V13.5385" stroke="white" stroke-width="3" stroke-linecap="round" stroke-linejoin="round"/>
<path d="M52.0002 27H21.231" stroke="white" stroke-width="3" stroke-linecap="round" stroke-linejoin="round"/>
<path d="M28.9233 19.3081L21.231 27.0004L28.9233 34.6927" stroke="white" stroke-width="3" stroke-linecap="round" stroke-linejoin="round"/>
</svg>
