<svg width="57" height="54" viewBox="0 0 57 54" fill="none" xmlns="http://www.w3.org/2000/svg">
<path d="M36.6154 40.4615V48.1538C36.6154 49.1738 36.2102 50.1523 35.4889 50.8735C34.7676 51.5946 33.7893 52 32.7692 52H5.84615C4.82608 52 3.84781 51.5946 3.12651 50.8735C2.40522 50.1523 2 49.1738 2 48.1538V5.84615C2 4.82608 2.40522 3.84781 3.12651 3.12651C3.84781 2.40522 4.82608 2 5.84615 2H32.7692C33.7893 2 34.7676 2.40522 35.4889 3.12651C36.2102 3.84781 36.6154 4.82608 36.6154 5.84615V13.5385" stroke="white" stroke-width="3" stroke-linecap="round" stroke-linejoin="round"/>
<path d="M26.231 28.5C25.4026 28.5 24.731 27.8284 24.731 27C24.731 26.1716 25.4026 25.5 26.231 25.5V28.5ZM57.0002 27L42.0002 35.6603V18.3397L57.0002 27ZM26.231 25.5H43.5002V28.5H26.231V25.5Z" fill="white"/>
</svg>
