<svg width="67" height="67" viewBox="0 0 67 67" fill="none" xmlns="http://www.w3.org/2000/svg">
<path d="M46 51V61C46 62.326 45.4732 63.598 44.5356 64.5355C43.5979 65.473 42.3261 66 41 66H6C4.6739 66 3.40215 65.473 2.46446 64.5355C1.52678 63.598 1 62.326 1 61V6C1 4.6739 1.52678 3.40215 2.46446 2.46446C3.40215 1.52678 4.6739 1 6 1H41C42.3261 1 43.5979 1.52678 44.5356 2.46446C45.4732 3.40215 46 4.6739 46 6V16" stroke="white" stroke-linecap="round" stroke-linejoin="round"/>
<path d="M31 33.5H66" stroke="white" stroke-linecap="round" stroke-linejoin="round"/>
<path d="M56 23.5L66 33.5L56 43.5" stroke="white" stroke-linecap="round" stroke-linejoin="round"/>
</svg>
