<svg width="54" height="54" viewBox="0 0 54 54" fill="none" xmlns="http://www.w3.org/2000/svg">
<path d="M17.3846 40.4615V48.1538C17.3846 49.1738 17.7898 50.1523 18.5111 50.8735C19.2324 51.5946 20.2107 52 21.2308 52H48.1538C49.1739 52 50.1522 51.5946 50.8735 50.8735C51.5948 50.1523 52 49.1738 52 48.1538V5.84615C52 4.82608 51.5948 3.84781 50.8735 3.12651C50.1522 2.40522 49.1739 2 48.1538 2H21.2308C20.2107 2 19.2324 2.40522 18.5111 3.12651C17.7898 3.84781 17.3846 4.82608 17.3846 5.84615V13.5385" stroke="white" stroke-width="3" stroke-linecap="round" stroke-linejoin="round"/>
<path d="M1.99981 27H32.769" stroke="white" stroke-width="3" stroke-linecap="round" stroke-linejoin="round"/>
<path d="M25.0767 19.3081L32.769 27.0004L25.0767 34.6927" stroke="white" stroke-width="3" stroke-linecap="round" stroke-linejoin="round"/>
</svg>
